<svg width="102" height="27" viewBox="0 0 102 27" fill="none" xmlns="http://www.w3.org/2000/svg">
<g clip-path="url(#clip0_1_9)">
<path d="M26.9947 6.65895C26.9632 6.36854 26.7827 6.11151 26.513 5.98563L13.8567 0.0793852C13.6306 -0.0261362 13.3693 -0.0261362 13.1431 0.0793852L0.486896 5.98563C0.217213 6.11151 0.0367559 6.36849 0.00516797 6.65895C0.00448242 6.66501 0 6.7458 0 6.75023V21.094C0 21.439 0.210041 21.7493 0.530402 21.8773L13.1867 26.9398C13.2872 26.9801 13.3936 27.0002 13.5 27.0002C13.6064 27.0002 13.7128 26.9801 13.8133 26.9398L26.4696 21.8773C26.79 21.7493 27 21.439 27 21.094V6.75023C27 6.7458 26.9954 6.66496 26.9947 6.65895ZM13.5 1.77506L24.0334 6.69064L19.9774 8.31307L9.24576 3.7604L13.5 1.77506ZM7.18822 4.72059L17.7533 9.20264L13.5 10.904L2.96662 6.69064L7.18822 4.72059ZM1.6875 7.99645L12.6562 12.3839V24.9102L1.6875 20.5227V7.99645ZM14.3438 24.9103V12.3839L25.3125 7.99645V20.5227L14.3438 24.9103Z" fill="#0A143A"/>
</g>
<path d="M41.4609 7.85547L36.8203 22H33.082L39.4219 4.9375H41.8008L41.4609 7.85547ZM45.3164 22L40.6641 7.85547L40.2891 4.9375H42.6914L49.0664 22H45.3164ZM45.1055 15.6484V18.4023H36.0938V15.6484H45.1055Z" fill="#0A143A"/>
<path d="M50.4375 4H53.8125V19.0938L53.4727 22H50.4375V4ZM61.8398 15.5312V15.7773C61.8398 16.7227 61.7383 17.5898 61.5352 18.3789C61.3398 19.168 61.0352 19.8516 60.6211 20.4297C60.207 21 59.6914 21.4453 59.0742 21.7656C58.4648 22.0781 57.7461 22.2344 56.918 22.2344C56.1445 22.2344 55.4727 22.0781 54.9023 21.7656C54.3398 21.4531 53.8672 21.0117 53.4844 20.4414C53.1016 19.8711 52.793 19.2031 52.5586 18.4375C52.3242 17.6719 52.1484 16.8359 52.0312 15.9297V15.3906C52.1484 14.4844 52.3242 13.6484 52.5586 12.8828C52.793 12.1172 53.1016 11.4492 53.4844 10.8789C53.8672 10.3086 54.3398 9.86719 54.9023 9.55469C55.4648 9.24219 56.1289 9.08594 56.8945 9.08594C57.7305 9.08594 58.457 9.24609 59.0742 9.56641C59.6992 9.87891 60.2148 10.3242 60.6211 10.9023C61.0352 11.4727 61.3398 12.1523 61.5352 12.9414C61.7383 13.7227 61.8398 14.5859 61.8398 15.5312ZM58.4648 15.7773V15.5312C58.4648 15.0156 58.4258 14.5312 58.3477 14.0781C58.2773 13.6172 58.1523 13.2148 57.9727 12.8711C57.793 12.5195 57.5469 12.2422 57.2344 12.0391C56.9297 11.8359 56.5352 11.7344 56.0508 11.7344C55.5898 11.7344 55.1992 11.8125 54.8789 11.9688C54.5586 12.125 54.293 12.3438 54.082 12.625C53.8789 12.9062 53.7266 13.2422 53.625 13.6328C53.5234 14.0156 53.4609 14.4375 53.4375 14.8984V16.4336C53.4609 17.0508 53.5625 17.5977 53.7422 18.0742C53.9297 18.543 54.2109 18.9141 54.5859 19.1875C54.9688 19.4531 55.4648 19.5859 56.0742 19.5859C56.5508 19.5859 56.9453 19.4922 57.2578 19.3047C57.5703 19.1172 57.8125 18.8516 57.9844 18.5078C58.1641 18.1641 58.2891 17.7617 58.3594 17.3008C58.4297 16.832 58.4648 16.3242 58.4648 15.7773Z" fill="#0A143A"/>
<path d="M63.3984 15.7891V15.543C63.3984 14.6133 63.5312 13.7578 63.7969 12.9766C64.0625 12.1875 64.4492 11.5039 64.957 10.9258C65.4648 10.3477 66.0898 9.89844 66.832 9.57812C67.5742 9.25 68.4258 9.08594 69.3867 9.08594C70.3477 9.08594 71.2031 9.25 71.9531 9.57812C72.7031 9.89844 73.332 10.3477 73.8398 10.9258C74.3555 11.5039 74.7461 12.1875 75.0117 12.9766C75.2773 13.7578 75.4102 14.6133 75.4102 15.543V15.7891C75.4102 16.7109 75.2773 17.5664 75.0117 18.3555C74.7461 19.1367 74.3555 19.8203 73.8398 20.4062C73.332 20.9844 72.707 21.4336 71.9648 21.7539C71.2227 22.0742 70.3711 22.2344 69.4102 22.2344C68.4492 22.2344 67.5938 22.0742 66.8438 21.7539C66.1016 21.4336 65.4727 20.9844 64.957 20.4062C64.4492 19.8203 64.0625 19.1367 63.7969 18.3555C63.5312 17.5664 63.3984 16.7109 63.3984 15.7891ZM66.7734 15.543V15.7891C66.7734 16.3203 66.8203 16.8164 66.9141 17.2773C67.0078 17.7383 67.1562 18.1445 67.3594 18.4961C67.5703 18.8398 67.8438 19.1094 68.1797 19.3047C68.5156 19.5 68.9258 19.5977 69.4102 19.5977C69.8789 19.5977 70.2812 19.5 70.6172 19.3047C70.9531 19.1094 71.2227 18.8398 71.4258 18.4961C71.6289 18.1445 71.7773 17.7383 71.8711 17.2773C71.9727 16.8164 72.0234 16.3203 72.0234 15.7891V15.543C72.0234 15.0273 71.9727 14.543 71.8711 14.0898C71.7773 13.6289 71.625 13.2227 71.4141 12.8711C71.2109 12.5117 70.9414 12.2305 70.6055 12.0273C70.2695 11.8242 69.8633 11.7227 69.3867 11.7227C68.9102 11.7227 68.5039 11.8242 68.168 12.0273C67.8398 12.2305 67.5703 12.5117 67.3594 12.8711C67.1562 13.2227 67.0078 13.6289 66.9141 14.0898C66.8203 14.543 66.7734 15.0273 66.7734 15.543Z" fill="#0A143A"/>
<path d="M77.4844 4H80.8594V19.0938L80.5195 22H77.4844V4ZM88.8867 15.5312V15.7773C88.8867 16.7227 88.7852 17.5898 88.582 18.3789C88.3867 19.168 88.082 19.8516 87.668 20.4297C87.2539 21 86.7383 21.4453 86.1211 21.7656C85.5117 22.0781 84.793 22.2344 83.9648 22.2344C83.1914 22.2344 82.5195 22.0781 81.9492 21.7656C81.3867 21.4531 80.9141 21.0117 80.5312 20.4414C80.1484 19.8711 79.8398 19.2031 79.6055 18.4375C79.3711 17.6719 79.1953 16.8359 79.0781 15.9297V15.3906C79.1953 14.4844 79.3711 13.6484 79.6055 12.8828C79.8398 12.1172 80.1484 11.4492 80.5312 10.8789C80.9141 10.3086 81.3867 9.86719 81.9492 9.55469C82.5117 9.24219 83.1758 9.08594 83.9414 9.08594C84.7773 9.08594 85.5039 9.24609 86.1211 9.56641C86.7461 9.87891 87.2617 10.3242 87.668 10.9023C88.082 11.4727 88.3867 12.1523 88.582 12.9414C88.7852 13.7227 88.8867 14.5859 88.8867 15.5312ZM85.5117 15.7773V15.5312C85.5117 15.0156 85.4727 14.5312 85.3945 14.0781C85.3242 13.6172 85.1992 13.2148 85.0195 12.8711C84.8398 12.5195 84.5938 12.2422 84.2812 12.0391C83.9766 11.8359 83.582 11.7344 83.0977 11.7344C82.6367 11.7344 82.2461 11.8125 81.9258 11.9688C81.6055 12.125 81.3398 12.3438 81.1289 12.625C80.9258 12.9062 80.7734 13.2422 80.6719 13.6328C80.5703 14.0156 80.5078 14.4375 80.4844 14.8984V16.4336C80.5078 17.0508 80.6094 17.5977 80.7891 18.0742C80.9766 18.543 81.2578 18.9141 81.6328 19.1875C82.0156 19.4531 82.5117 19.5859 83.1211 19.5859C83.5977 19.5859 83.9922 19.4922 84.3047 19.3047C84.6172 19.1172 84.8594 18.8516 85.0312 18.5078C85.2109 18.1641 85.3359 17.7617 85.4062 17.3008C85.4766 16.832 85.5117 16.3242 85.5117 15.7773Z" fill="#0A143A"/>
<path d="M97.8281 19.1406V13.4922C97.8281 13.0859 97.7617 12.7383 97.6289 12.4492C97.4961 12.1523 97.2891 11.9219 97.0078 11.7578C96.7344 11.5938 96.3789 11.5117 95.9414 11.5117C95.5664 11.5117 95.2422 11.5781 94.9688 11.7109C94.6953 11.8359 94.4844 12.0195 94.3359 12.2617C94.1875 12.4961 94.1133 12.7734 94.1133 13.0938H90.7383C90.7383 12.5547 90.8633 12.043 91.1133 11.5586C91.3633 11.0742 91.7266 10.6484 92.2031 10.2812C92.6797 9.90625 93.2461 9.61328 93.9023 9.40234C94.5664 9.19141 95.3086 9.08594 96.1289 9.08594C97.1133 9.08594 97.9883 9.25 98.7539 9.57812C99.5195 9.90625 100.121 10.3984 100.559 11.0547C101.004 11.7109 101.227 12.5312 101.227 13.5156V18.9414C101.227 19.6367 101.27 20.207 101.355 20.6523C101.441 21.0898 101.566 21.4727 101.73 21.8008V22H98.3203C98.1562 21.6562 98.0312 21.2266 97.9453 20.7109C97.8672 20.1875 97.8281 19.6641 97.8281 19.1406ZM98.2734 14.2773L98.2969 16.1875H96.4102C95.9648 16.1875 95.5781 16.2383 95.25 16.3398C94.9219 16.4414 94.6523 16.5859 94.4414 16.7734C94.2305 16.9531 94.0742 17.1641 93.9727 17.4062C93.8789 17.6484 93.832 17.9141 93.832 18.2031C93.832 18.4922 93.8984 18.7539 94.0312 18.9883C94.1641 19.2148 94.3555 19.3945 94.6055 19.5273C94.8555 19.6523 95.1484 19.7148 95.4844 19.7148C95.9922 19.7148 96.4336 19.6133 96.8086 19.4102C97.1836 19.207 97.4727 18.957 97.6758 18.6602C97.8867 18.3633 97.9961 18.082 98.0039 17.8164L98.8945 19.2461C98.7695 19.5664 98.5977 19.8984 98.3789 20.2422C98.168 20.5859 97.8984 20.9102 97.5703 21.2148C97.2422 21.5117 96.8477 21.7578 96.3867 21.9531C95.9258 22.1406 95.3789 22.2344 94.7461 22.2344C93.9414 22.2344 93.2109 22.0742 92.5547 21.7539C91.9062 21.4258 91.3906 20.9766 91.0078 20.4062C90.6328 19.8281 90.4453 19.1719 90.4453 18.4375C90.4453 17.7734 90.5703 17.1836 90.8203 16.668C91.0703 16.1523 91.4375 15.7188 91.9219 15.3672C92.4141 15.0078 93.0273 14.7383 93.7617 14.5586C94.4961 14.3711 95.3477 14.2773 96.3164 14.2773H98.2734Z" fill="#0A143A"/>
<defs>
<clipPath id="clip0_1_9">
<rect width="27" height="27" fill="white"/>
</clipPath>
</defs>
</svg>
